<svg width="119" height="40" viewBox="0 0 119 40" fill="none" xmlns="http://www.w3.org/2000/svg">
<path fill-rule="evenodd" clip-rule="evenodd" d="M27.9327 33.4623C23.4721 29.644 20.6451 23.9723 20.6451 17.6403C20.6451 11.5345 23.2736 6.04272 27.4607 2.23462H0V33.4623H27.9327ZM6.24553 4.31648H2.08184V8.48017H6.24553V4.31648ZM2.08184 9.93744H6.24553V14.1011H2.08184V9.93744ZM6.24553 15.5584H2.08184V19.7221H6.24553V15.5584ZM2.08184 21.1794H6.24553V25.343H2.08184V21.1794ZM2.08184 26.8004H6.24553V30.9641H2.08184V26.8004Z" fill="white"/>
<circle cx="41.3403" cy="17.8769" r="16.3769" stroke="white" stroke-width="3"/>
<path d="M57.8409 39.0607C58.4267 39.6465 59.3765 39.6465 59.9622 39.0607C60.548 38.4749 60.548 37.5251 59.9622 36.9394L57.8409 39.0607ZM50.7304 31.9502L57.8409 39.0607L59.9622 36.9394L52.8518 29.8289L50.7304 31.9502Z" fill="white"/>
<path d="M117.317 39.4884C118.146 39.4884 118.817 38.8168 118.817 37.9884C118.817 37.16 118.146 36.4884 117.317 36.4884V39.4884ZM58.0999 39.4884H117.317V36.4884H58.0999V39.4884Z" fill="white"/>
<path d="M62.7258 18.4692V8.10924H65.0078L66.7718 12.9672C67.0098 13.6112 67.1918 14.2832 67.4158 14.9552H67.4718C67.7098 14.2832 67.8918 13.6112 68.1018 12.9672L69.8238 8.10924H72.1198V18.4692H70.2298V14.1432C70.2298 13.1632 70.3978 11.7212 70.5098 10.7412H70.4398L69.5858 13.1772L67.9898 17.5452H66.7998L65.2038 13.1772L64.3638 10.7412H64.3078C64.4198 11.7212 64.5738 13.1632 64.5738 14.1432V18.4692H62.7258ZM77.7694 18.6652C75.7954 18.6652 74.0034 17.1532 74.0034 14.5632C74.0034 11.9592 75.7954 10.4472 77.7694 10.4472C79.7294 10.4472 81.5214 11.9592 81.5214 14.5632C81.5214 17.1532 79.7294 18.6652 77.7694 18.6652ZM77.7694 16.9992C78.8334 16.9992 79.4214 16.0332 79.4214 14.5632C79.4214 13.0792 78.8334 12.1272 77.7694 12.1272C76.6914 12.1272 76.1034 13.0792 76.1034 14.5632C76.1034 16.0332 76.6914 16.9992 77.7694 16.9992ZM84.8296 18.4692L82.1416 10.6432H84.2276L85.3616 14.5492C85.5716 15.3192 85.7816 16.1172 85.9916 16.9152H86.0616C86.2716 16.1172 86.4816 15.3192 86.6916 14.5492L87.8396 10.6432H89.8276L87.2096 18.4692H84.8296ZM91.132 18.4692V10.6432H93.19V18.4692H91.132ZM92.154 9.36924C91.44 9.36924 90.964 8.92124 90.964 8.23524C90.964 7.56324 91.44 7.12924 92.154 7.12924C92.868 7.12924 93.358 7.56324 93.358 8.23524C93.358 8.92124 92.868 9.36924 92.154 9.36924ZM98.8 18.6652C96.602 18.6652 94.894 17.1532 94.894 14.5632C94.894 12.0152 96.686 10.4472 98.534 10.4472C100.704 10.4472 101.81 12.0152 101.81 14.1852C101.81 14.5772 101.768 14.9412 101.726 15.1372H96.882C97.064 16.4252 97.904 17.0832 99.066 17.0832C99.696 17.0832 100.256 16.8872 100.83 16.5372L101.516 17.8112C100.746 18.3432 99.766 18.6652 98.8 18.6652ZM96.854 13.7652H100.06C100.06 12.7012 99.584 12.0292 98.576 12.0292C97.75 12.0292 97.022 12.6172 96.854 13.7652ZM65.8198 30.6652C64.4198 30.6652 63.0478 30.1332 62.0398 29.1672L63.2298 27.7392C63.9578 28.4252 64.9518 28.8732 65.8618 28.8732C66.9398 28.8732 67.4998 28.4112 67.4998 27.6972C67.4998 26.9272 66.8698 26.6752 65.9458 26.2832L64.5598 25.6952C63.5238 25.2752 62.4598 24.4212 62.4598 22.9232C62.4598 21.2292 63.9578 19.9272 66.0438 19.9272C67.2478 19.9272 68.4518 20.4032 69.2918 21.2572L68.2558 22.5592C67.5838 22.0132 66.8978 21.7052 66.0438 21.7052C65.1338 21.7052 64.5598 22.1112 64.5598 22.7832C64.5598 23.5252 65.3018 23.8052 66.1838 24.1552L67.5418 24.7152C68.7878 25.2332 69.6138 26.0452 69.6138 27.5292C69.6138 29.2232 68.1998 30.6652 65.8198 30.6652ZM74.7101 30.6652C72.5121 30.6652 70.8041 29.1532 70.8041 26.5632C70.8041 24.0152 72.5961 22.4472 74.4441 22.4472C76.6141 22.4472 77.7201 24.0152 77.7201 26.1852C77.7201 26.5772 77.6781 26.9412 77.6361 27.1372H72.7921C72.9741 28.4252 73.8141 29.0832 74.9761 29.0832C75.6061 29.0832 76.1661 28.8872 76.7401 28.5372L77.4261 29.8112C76.6561 30.3432 75.6761 30.6652 74.7101 30.6652ZM72.7641 25.7652H75.9701C75.9701 24.7012 75.4941 24.0292 74.4861 24.0292C73.6601 24.0292 72.9321 24.6172 72.7641 25.7652ZM81.0735 30.6652C79.6735 30.6652 78.7635 29.6852 78.7635 28.3412C78.7635 26.6752 80.1215 25.7932 83.2715 25.4432C83.2295 24.6732 82.9075 24.0992 81.9415 24.0992C81.2135 24.0992 80.4995 24.4072 79.7855 24.8412L79.0435 23.4692C79.9675 22.9092 81.0735 22.4472 82.3195 22.4472C84.3075 22.4472 85.3295 23.6232 85.3295 25.9052V30.4692H83.6495L83.4955 29.6432H83.4395C82.7535 30.2312 81.9695 30.6652 81.0735 30.6652ZM81.7455 29.0552C82.3335 29.0552 82.7675 28.7892 83.2715 28.2992V26.7172C81.3535 26.9552 80.7235 27.4732 80.7235 28.1872C80.7235 28.7892 81.1435 29.0552 81.7455 29.0552ZM87.427 30.4692V22.6432H89.093L89.261 24.0292H89.303C89.863 22.9932 90.717 22.4472 91.529 22.4472C91.949 22.4472 92.201 22.5032 92.439 22.6152L92.089 24.3792C91.809 24.3092 91.599 24.2532 91.263 24.2532C90.661 24.2532 89.919 24.6732 89.485 25.8072V30.4692H87.427ZM96.6239 30.6652C94.4679 30.6652 92.8159 29.1532 92.8159 26.5632C92.8159 23.9592 94.6779 22.4472 96.8059 22.4472C97.7859 22.4472 98.5139 22.8112 99.0879 23.3152L98.1219 24.6312C97.7299 24.2952 97.3519 24.1272 96.9319 24.1272C95.7139 24.1272 94.9159 25.0792 94.9159 26.5632C94.9159 28.0332 95.7279 28.9992 96.8479 28.9992C97.4219 28.9992 97.9539 28.7192 98.3879 28.3692L99.1999 29.7272C98.4579 30.3712 97.4919 30.6652 96.6239 30.6652ZM100.689 30.4692V19.3112H102.747V22.1252L102.649 23.5952C103.265 23.0072 104.049 22.4472 105.113 22.4472C106.793 22.4472 107.535 23.6232 107.535 25.5832V30.4692H105.477V25.8492C105.477 24.6172 105.127 24.2112 104.371 24.2112C103.727 24.2112 103.321 24.5192 102.747 25.0792V30.4692H100.689Z" fill="white"/>
</svg>
